<svg id="Layer_1" enable-background="new 0 0 480.034 480.034" height="512" viewBox="0 0 480.034 480.034" width="512" xmlns="http://www.w3.org/2000/svg"><g><path d="m232.462 388.66c1.634 4.672 7.146 6.804 11.506 4.331l111-63.011c3.208-1.821 4.755-5.599 3.745-9.146-42.836-150.522-40.071-141.943-41.573-143.809l-70.891-88.01c-3.198-3.97-9.259-3.975-12.461 0-75.844 94.16-70.877 87.969-71.225 88.471-1.164 1.669 1.572-7.087-41.239 143.348-1.01 3.547.537 7.325 3.745 9.146l60.659 34.434c3.844 2.182 8.726.834 10.906-3.008 2.182-3.842.835-8.725-3.008-10.906l-55.194-31.332 31.456-110.564zm7.556-281.872 63.641 79.009 37.945 133.372-87.053 49.417 43.762-125.925c1.45-4.173-.757-8.732-4.931-10.183-4.175-1.453-8.732.757-10.183 4.931l-43.182 124.255-61.877-178.055z"/><path d="m270.072 44.301c-119.881-18.26-228.054 74.35-228.054 195.733 0 109.178 88.822 198 198 198 112.249 0 204.991-94.229 197.586-210.902-4.937-76.717-53.585-141.657-121.498-169.948-4.079-1.699-8.762.229-10.461 4.309-1.699 4.078.229 8.762 4.309 10.461 63.439 26.428 107.277 87.743 111.683 156.199 6.73 106.042-77.064 193.882-181.618 193.882-100.355 0-182-81.645-182-182 0-111.455 99.328-196.719 209.644-179.916 4.377.668 8.448-2.337 9.114-6.704.664-4.368-2.338-8.448-6.705-9.114z"/><path d="m409.723 70.329c-72.84-72.84-179.264-88.2-265.923-50.256-89.443 39.166-148.406 130.031-143.499 231.716.214 4.413 3.982 7.826 8.377 7.605 4.413-.213 7.818-3.963 7.605-8.376-6.18-128.047 95.462-234.983 223.735-234.983 123.514 0 224 100.486 224 224s-100.486 224-224 224c-98.378 0-186.673-65.782-214.717-159.969-1.261-4.234-5.714-6.643-9.95-5.385-4.234 1.261-6.645 5.716-5.384 9.95 29.439 98.877 121.083 171.403 230.051 171.403 133.423 0 240-108.21 240-240 0-64.106-24.964-124.375-70.295-169.705z"/></g></svg>